<?xml version="1.0" ?><!DOCTYPE svg  PUBLIC '-//W3C//DTD SVG 1.1//EN'  'http://www.w3.org/Graphics/SVG/1.1/DTD/svg11.dtd'><svg fill="rgba(53, 122, 150, 0.6)" height="512px" style="enable-background:new 0 0 512 512;" version="1.1" viewBox="0 0 512 512" width="512px" xml:space="preserve" xmlns="http://www.w3.org/2000/svg" xmlns:xlink="http://www.w3.org/1999/xlink"><g id="_x31_54_x2C__Play_x2C__Video_x2C__Twitter"><g id="XMLID_5068_"><g><path d="M123.47,461.72h-0.05c-8.23-0.02-16.07-3.17-22.07-8.88c-6.22-5.89-9.78-14.25-9.76-22.93V103.76c0-5.51,4.49-10,10-10     c5.52,0,10,4.49,10,10v326.15c0.03,3.38,1.19,6.14,3.57,8.46c2.18,2.1,5.25,3.35,8.21,3.35h0.05c2.24-0.01,4.3-0.63,6.29-1.89     l107.19-68.511c1.61-1.029,3.47-1.569,5.38-1.569c3.43,0,6.58,1.729,8.43,4.609c1.44,2.261,1.92,4.931,1.34,7.54     c-0.57,2.61-2.13,4.841-4.38,6.28l-107.19,68.5C135.34,459.979,129.46,461.72,123.47,461.72z M284.43,362.83     c-3.439,0-6.59-1.73-8.439-4.62c-1.44-2.25-1.921-4.93-1.341-7.54c0.57-2.601,2.131-4.83,4.381-6.271     c1.609-1.029,3.47-1.58,5.38-1.58c3.43,0,6.58,1.73,8.43,4.62c2.97,4.65,1.61,10.841-3.04,13.811     C288.189,362.28,286.33,362.83,284.43,362.83z M326.56,335.899c-3.439,0-6.59-1.72-8.439-4.609     c-2.971-4.65-1.601-10.851,3.04-13.82l70.12-44.81c5.84-3.761,9.079-9.67,9.13-16.66c-0.051-6.99-3.29-12.91-9.13-16.66     L129.71,72.17c-1.99-1.26-4.05-1.88-6.29-1.89h-0.04c-2.97,0-6.04,1.25-8.22,3.35c-2.37,2.31-3.54,5.07-3.57,8.45v0.01     c0,5.51-4.48,10-10,10c-5.51,0-10-4.49-10-10c-0.02-8.68,3.54-17.04,9.76-22.93c6-5.72,13.84-8.87,22.07-8.88h0.06     c5.98,0,11.86,1.74,17,5.04l261.58,167.17c5.8,3.7,10.561,8.84,13.75,14.88c3.03,5.74,4.62,12.18,4.59,18.63     c0.03,6.45-1.56,12.89-4.59,18.63c-3.189,6.03-7.95,11.18-13.76,14.88l-70.12,44.82     C330.319,335.359,328.46,335.899,326.56,335.899z"/></g></g></g><g id="Layer_1"/></svg>